<?xml version="1.0" encoding="utf-8"?>
<!-- Generator: Adobe Illustrator 21.0.0, SVG Export Plug-In . SVG Version: 6.00 Build 0)  -->
<svg version="1.1" id="Layer_1" xmlns="http://www.w3.org/2000/svg" xmlns:xlink="http://www.w3.org/1999/xlink" x="0px" y="0px"
	 viewBox="0 0 33.4 33.4" style="enable-background:new 0 0 33.4 33.4;" xml:space="preserve">
<style type="text/css">
	.st0{fill:#31DBE3;}
</style>
<g id="aparat" transform="translate(0 0)">
	<path id="Path_5023" class="st0" d="M16.7,2.9C9,2.9,2.9,9.1,2.9,16.7c0,7.6,6.2,13.8,13.8,13.8c7.6,0,13.8-6.2,13.8-13.8
		C30.5,9,24.3,2.9,16.7,2.9C16.7,2.9,16.7,2.9,16.7,2.9z M13.2,7.2c1.9,0,3.5,1.5,3.5,3.5s-1.5,3.5-3.5,3.5s-3.5-1.5-3.5-3.5
		S11.3,7.2,13.2,7.2L13.2,7.2z M10.6,23.6c-1.9,0-3.5-1.5-3.5-3.5c0-1.9,1.5-3.5,3.5-3.5s3.5,1.5,3.5,3.5l0,0
		C14.1,22,12.5,23.6,10.6,23.6z M15,16.7c0-1,0.8-1.7,1.7-1.7c1,0,1.7,0.8,1.7,1.7c0,1-0.8,1.7-1.7,1.7C15.7,18.4,15,17.6,15,16.7
		L15,16.7z M20.1,26.2c-1.9,0-3.5-1.5-3.5-3.5s1.5-3.5,3.5-3.5s3.5,1.5,3.5,3.5c0,0,0,0,0,0C23.6,24.6,22.1,26.2,20.1,26.2
		C20.1,26.2,20.1,26.2,20.1,26.2L20.1,26.2z M22.7,16.7c-1.9,0-3.5-1.5-3.5-3.5s1.5-3.5,3.5-3.5s3.5,1.5,3.5,3.5c0,0,0,0,0,0
		C26.2,15.1,24.6,16.7,22.7,16.7L22.7,16.7z"/>
	<path id="Path_5019" class="st0" d="M16.1,1.1L12,0.2C8.6-0.6,5.3,1.5,4.5,4.9L3.6,9C6.4,4.6,10.9,1.7,16.1,1.1z"/>
	<path id="Path_5020" class="st0" d="M1.1,17.3l-0.9,4.1c-0.8,3.4,1.3,6.7,4.7,7.4L9,29.8C4.6,27,1.7,22.4,1.1,17.3z"/>
	<path id="Path_5021" class="st0" d="M28.5,4.5l-4.1-0.9c4.4,2.8,7.3,7.4,7.9,12.5l0.9-4.1C34,8.6,31.9,5.3,28.5,4.5
		C28.5,4.5,28.5,4.5,28.5,4.5z"/>
	<path id="Path_5022" class="st0" d="M17.3,32.3l4.1,0.9c3.4,0.8,6.7-1.3,7.4-4.7l0.9-4.1C27,28.8,22.4,31.7,17.3,32.3z"/>
</g>
</svg>
