<?xml version="1.0" encoding="utf-8"?>
<!-- Generator: Adobe Illustrator 21.0.0, SVG Export Plug-In . SVG Version: 6.00 Build 0)  -->
<svg version="1.1" id="Layer_1" xmlns="http://www.w3.org/2000/svg" xmlns:xlink="http://www.w3.org/1999/xlink" x="0px" y="0px"
	 viewBox="0 0 33.4 33.4" style="enable-background:new 0 0 33.4 33.4;" xml:space="preserve">
<style type="text/css">
	.st0{fill:#31DBE3;}
</style>
<path id="bale" class="st0" d="M19,0.1L19,0.1c-0.3,0-0.6-0.1-0.8-0.1H18c-0.2,0-0.4,0-0.6,0h-1.5c-0.1,0-0.2,0-0.4,0
	c-0.1,0-0.2,0-0.3,0c-0.1,0-0.2,0-0.3,0c-0.1,0-0.2,0-0.3,0s-0.2,0-0.3,0c-0.1,0-0.2,0-0.3,0c-0.1,0-0.2,0-0.3,0.1
	c-0.1,0-0.2,0-0.3,0c-0.1,0-0.2,0-0.3,0.1c-0.1,0-0.2,0-0.3,0.1c-0.1,0-0.2,0-0.3,0.1c-0.1,0-0.2,0-0.3,0.1c-0.1,0-0.2,0.1-0.3,0.1
	c-0.1,0-0.2,0-0.3,0.1c-0.1,0-0.2,0.1-0.3,0.1C11,1,10.9,1,10.8,1.1c-0.1,0-0.2,0.1-0.3,0.1c-0.1,0-0.2,0.1-0.3,0.1
	c-0.1,0-0.2,0.1-0.3,0.1L9.6,1.5c-0.1,0-0.2,0.1-0.3,0.2L9.1,1.8C9,1.9,8.9,2,8.7,2L8.5,2.1C8.4,2.2,8.3,2.2,8.2,2.3L7.9,2.4
	C7.8,2.5,7.7,2.6,7.6,2.6c-0.1,0-0.7,0.5-0.7,0.5c-1.4-1.1-2.8-2-4.3-2.9C1.8-0.3,0.7,0.1,0.2,1C0.1,1.2,0,1.5,0,1.8v14.9
	c0,8.8,6.8,16.1,15.6,16.6h1.9c0.2,0,0.3,0,0.4,0c0.1,0,0.3,0,0.4,0c0.2,0,0.3,0,0.4,0c0.1,0,0.3,0,0.4,0c0.1,0,0.3,0,0.4-0.1
	s0.3,0,0.4-0.1c0.1,0,0.3-0.1,0.4-0.1c0.1,0,0.2,0,0.4-0.1l0.4-0.1l0.4-0.1l0.4-0.1l0.4-0.1c0.1,0,0.3-0.1,0.4-0.2
	c0.1,0,0.3-0.1,0.4-0.2c0.1,0,0.2-0.1,0.4-0.2s0.2-0.1,0.4-0.2c0.1-0.1,0.3-0.1,0.4-0.2c0.1,0,0.2-0.1,0.4-0.2
	c0.1-0.1,0.2-0.1,0.4-0.2c0.1-0.1,0.2-0.1,0.3-0.2c0.1-0.1,0.2-0.1,0.4-0.2c0.1-0.1,0.2-0.1,0.3-0.2c0.1-0.1,0.2-0.2,0.3-0.2
	c0.1-0.1,0.2-0.2,0.3-0.2s0.2-0.2,0.3-0.2s0.2-0.2,0.3-0.2c0.1-0.1,0.2-0.2,0.3-0.3c0.1-0.1,0.2-0.2,0.3-0.2
	c0.2-0.2,0.4-0.4,0.6-0.6l0.3-0.3c0.1-0.1,0.2-0.2,0.3-0.3c0-0.1,0-0.2,0.2-0.3c0.1-0.1,0.2-0.2,0.2-0.3c0.1-0.1,0.2-0.2,0.2-0.3
	s0.2-0.2,0.2-0.3c0.1-0.1,0.2-0.2,0.2-0.3c0.1-0.1,0.2-0.2,0.2-0.3l0.2-0.4c0.1-0.1,0.1-0.2,0.2-0.3s0.1-0.2,0.2-0.4
	c0.1-0.1,0.1-0.2,0.2-0.3s0.1-0.2,0.2-0.4c0-0.1,0.1-0.2,0.2-0.3c0.1-0.1,0.1-0.3,0.2-0.4c0-0.1,0.1-0.2,0.2-0.4
	c0-0.1,0.1-0.3,0.2-0.4l0.1-0.4c0-0.1,0.1-0.3,0.2-0.4l0.1-0.4l0.1-0.4l0.1-0.4l0.1-0.4c0-0.1,0-0.2,0.1-0.4c0-0.2,0-0.3,0.1-0.4
	c0-0.1,0-0.2,0.1-0.4c0-0.2,0-0.3,0.1-0.5c0-0.1,0-0.2,0-0.3c0-0.2,0-0.4,0-0.6c0-0.1,0-0.2,0-0.3c0-0.3,0-0.5,0-0.8v0
	C33.4,8.3,27.3,1.3,19,0.1z M26.3,14.6l-9.7,9.6c-0.6,0.6-1.4,1-2.3,1c-0.9,0-1.7-0.3-2.3-0.9L6.9,19c-1.3-1.3-1.3-3.3,0-4.6
	c1.3-1.3,3.3-1.3,4.6,0l0,0l2.9,2.9l7.4-7.4c1.3-1.3,3.3-1.3,4.6,0C27.6,11.2,27.6,13.3,26.3,14.6L26.3,14.6L26.3,14.6z"/>
</svg>
