<?xml version="1.0" encoding="utf-8"?>
<!-- Generator: Adobe Illustrator 21.0.0, SVG Export Plug-In . SVG Version: 6.00 Build 0)  -->
<svg version="1.1" id="Layer_1" xmlns="http://www.w3.org/2000/svg" xmlns:xlink="http://www.w3.org/1999/xlink" x="0px" y="0px"
	 viewBox="0 0 34.2 33.4" style="enable-background:new 0 0 34.2 33.4;" xml:space="preserve">
<style type="text/css">
	.st0{fill:#31DBE3;}
</style>
<path id="instagram" class="st0" d="M10,0C4.5-0.1,0.1,4.3,0,9.7v13.9c0.1,5.4,4.5,9.8,10,9.7h14.3c5.4,0.1,9.9-4.3,10-9.7V9.7
	c-0.1-5.4-4.5-9.8-10-9.7H10z M27.1,5.6c0.8,0,1.4,0.7,1.4,1.4c0,0.8-0.7,1.4-1.4,1.4c-0.8,0-1.4-0.6-1.4-1.4
	C25.7,6.2,26.3,5.6,27.1,5.6z M17.1,8.3c4.7-0.1,8.5,3.7,8.6,8.3c-0.2,4.7-4.1,8.4-8.8,8.3c-4.5-0.2-8.1-3.8-8.3-8.3
	C8.6,12,12.4,8.3,17.1,8.3z M17.1,11.1c-3.1,0.1-5.5,2.6-5.4,5.7s2.6,5.5,5.7,5.4c3-0.1,5.4-2.5,5.4-5.6
	C22.8,13.6,20.2,11.1,17.1,11.1z"/>
</svg>
