<?xml version="1.0" encoding="utf-8"?>
<!-- Generator: Adobe Illustrator 21.0.0, SVG Export Plug-In . SVG Version: 6.00 Build 0)  -->
<svg version="1.1" id="Layer_1" xmlns="http://www.w3.org/2000/svg" xmlns:xlink="http://www.w3.org/1999/xlink" x="0px" y="0px"
	 viewBox="0 0 33.4 33.4" style="enable-background:new 0 0 33.4 33.4;" xml:space="preserve">
<style type="text/css">
	.st0{fill:#31DBE3;}
</style>
<path id="telegram" class="st0" d="M17.7,0L17.7,0c-0.3,0-0.7,0-1,0c-0.3,0-0.5,0-0.8,0C7,0.4,0,7.8,0,16.7c0,8.9,7,16.2,15.9,16.7
	c0.3,0,0.5,0,0.8,0c0.4,0,0.8,0,1.1,0h0.1c8.7-0.6,15.5-7.9,15.5-16.6C33.4,7.9,26.5,0.6,17.7,0z M25.1,11c0,0.3,0,0.5-0.1,0.8
	c0,0.6-0.1,1.1-0.2,1.7c-0.2,1-0.3,2.1-0.5,3.1c-0.2,1.4-0.4,2.8-0.7,4.1c-0.2,1.3-0.4,2.6-0.7,3.9c-0.1,0.8-0.8,1.3-1.5,1.3
	c-0.3,0-0.5-0.1-0.7-0.2c-2-1.4-4-2.7-6-4.1c-0.4-0.2-0.5-0.7-0.4-1.1c0.1-0.4,0.4-0.8,0.7-1c1.5-1.4,3-2.7,4.4-4.1
	c0.2-0.2,0.4-0.4,0.6-0.6c0.1-0.1,0.1-0.2,0.1-0.4c0-0.1,0-0.2-0.2-0.2c-0.1,0-0.3,0.1-0.4,0.1c-0.3,0.2-0.6,0.3-0.9,0.5
	c-1.7,1.2-3.4,2.4-5.1,3.5c-0.5,0.3-1.1,0.7-1.6,1c-0.6,0.3-1.2,0.5-1.9,0.4c-1.1-0.2-2.1-0.5-3.1-0.9c-0.3-0.1-0.5-0.2-0.8-0.4
	c-0.4-0.3-0.5-0.6,0-0.9c0.5-0.3,1-0.5,1.4-0.8c0.2-0.1,0.5-0.2,0.7-0.3c0.6-0.3,1.1-0.5,1.7-0.8c1.5-0.6,2.9-1.3,4.4-1.9
	c2-0.8,4-1.6,6-2.4c0.8-0.3,1.5-0.6,2.3-0.9c0.3-0.1,0.7-0.2,1.1-0.2c0.3,0,0.6,0,0.8,0.2C25,10.5,25.1,10.8,25.1,11L25.1,11z"/>
</svg>
