<svg xmlns="http://www.w3.org/2000/svg" viewBox="0 0 334 435"><defs><style>.cls-1{fill:#3ec1c7;}.cls-2{fill:#bedee2;}.cls-3,.cls-5{fill:none;stroke-miterlimit:10;stroke-width:1px;}.cls-3{stroke:#88c5ce;}.cls-4{fill:#88c5ce;}.cls-5{stroke:#add7de;}.cls-6{fill:#dbe2ea;}.cls-7{fill:#38a8a8;}.cls-8{fill:#f2f2f2;}.cls-9{fill:#add7de;}.cls-10{fill:#fff;}.cls-11{fill:#e0e4e9;}.cls-12{fill:#53eaea;}.cls-13{fill:#339da8;}.cls-14{fill:#30dbe3;}.cls-15{fill:#31a1a6;}.cls-16{fill:#ff6ea6;}.cls-17{fill:#7b7d84;}.cls-18{fill:#4f535e;}</style></defs><title>login</title><g id="Layer_2" data-name="Layer 2"><g id="Layer_1-2" data-name="Layer 1"><rect class="cls-1" width="334" height="435"/><path class="cls-2" d="M288.7,153.4c7.76,1,31.59-6.57,31.09-25.93s-34.41,1.83-40.06,8.64S276.65,151.91,288.7,153.4Z"/><path class="cls-3" d="M255.45,163.88s17.92-14.94,31.23-23.45c4.86-3.11,9.11-5.37,11.65-5.72"/><path class="cls-3" d="M289.37,133.29s-3.13,3.8-2.68,7.13"/><path class="cls-3" d="M297.57,130.84s-3.23,2.33-2.81,4.9"/><path class="cls-4" d="M268.32,175.66c1.59,4.48,8.63,6.91,13.28,6.72,10.06-.42,15.29-4.74,14.46-6.65s-5.74-10.72-17.79-10.14c-3.48.17-7.33,1.22-9.18,4.45A7,7,0,0,0,268.32,175.66Z"/><path class="cls-5" d="M257.66,174s14.94-3.75,24.42,0"/><path class="cls-6" d="M270.63,186.87c4.32-.78,3.66-.27,3.66-.27l-3.59,1.32s0,.59.07,1c.19,2.62,2,6.92,7.67,8.29,8.31,2,15.63-1.79,18.29-4.47,0,0-23.27-22.63-42.23,7.3h1.83S263.44,188.1,270.63,186.87Z"/><ellipse class="cls-7" cx="157" cy="290.56" rx="131.5" ry="3.44"/><ellipse class="cls-7" cx="96.31" cy="382.34" rx="24.92" ry="2.61"/><path class="cls-8" d="M49.71,114.61H267.5a0,0,0,0,1,0,0V277.49a12,12,0,0,1-12,12H61.74a12,12,0,0,1-12-12V114.61A0,0,0,0,1,49.71,114.61Z"/><path class="cls-9" d="M49.71,100.8H267.5a0,0,0,0,1,0,0v2.29A11.54,11.54,0,0,1,256,114.63H61.25a11.54,11.54,0,0,1-11.54-11.54V100.8a0,0,0,0,1,0,0Z" transform="translate(317.21 215.43) rotate(180)"/><circle class="cls-10" cx="57.88" cy="108.24" r="2.7"/><circle class="cls-10" cx="65.63" cy="108.24" r="2.7"/><circle class="cls-10" cx="73.24" cy="108.24" r="2.7"/><rect class="cls-10" x="82.5" y="129.43" width="152" height="142.57" rx="10.13" ry="10.13"/><circle class="cls-11" cx="160.18" cy="155.29" r="15.71"/><rect class="cls-8" x="107.5" y="181.05" width="103" height="15.01" rx="4.5" ry="4.5"/><rect class="cls-8" x="107.5" y="206.06" width="103" height="15.01" rx="4.5" ry="4.5"/><rect class="cls-12" x="131.5" y="233.09" width="57" height="15.01" rx="3.35" ry="3.35"/><ellipse class="cls-7" cx="41.81" cy="301.26" rx="20.31" ry="2.14"/><path class="cls-13" d="M47.22,274.13s4.65-16.82,14.27-18.56c0,0-16.39,1.87-17.83,8.21,0,0,5.16-30,20.77-37.62,0,0-17.14,1.26-22.78,22.57,0,0-5.11-48.85-7-54.7l1.93,56.36s-11-33.23-17.87-37.43c0,0,7.14,23.13,10,35,0,0-12.59-9.09-15.83-9.14,0,0,24.07,24,24.66,34.33S47.22,274.13,47.22,274.13Z"/><path class="cls-9" d="M24.14,272.09H62.29s1.07,28.75-19.08,29S24.14,272.09,24.14,272.09Z"/><rect class="cls-11" x="111.5" y="184" width="7" height="7" rx="3.5" ry="3.5"/><rect class="cls-11" x="123.5" y="184" width="7" height="7" rx="3.5" ry="3.5"/><rect class="cls-11" x="135.5" y="184" width="7" height="7" rx="3.5" ry="3.5"/><rect class="cls-11" x="147.5" y="184" width="7" height="7" rx="3.5" ry="3.5"/><rect class="cls-11" x="159.5" y="184" width="7" height="7" rx="3.5" ry="3.5"/><rect class="cls-11" x="171.5" y="184" width="7" height="7" rx="3.5" ry="3.5"/><rect class="cls-11" x="183.5" y="184" width="7" height="7" rx="3.5" ry="3.5"/><rect class="cls-11" x="195.5" y="184" width="7" height="7" rx="3.5" ry="3.5"/><rect class="cls-11" x="111.5" y="209" width="7" height="7" rx="3.5" ry="3.5"/><rect class="cls-11" x="123.5" y="209" width="7" height="7" rx="3.5" ry="3.5"/><rect class="cls-11" x="135.5" y="209" width="7" height="7" rx="3.5" ry="3.5"/><rect class="cls-11" x="147.5" y="209" width="7" height="7" rx="3.5" ry="3.5"/><rect class="cls-11" x="159.5" y="209" width="7" height="7" rx="3.5" ry="3.5"/><rect class="cls-11" x="171.5" y="209" width="7" height="7" rx="3.5" ry="3.5"/><rect class="cls-11" x="183.5" y="209" width="7" height="7" rx="3.5" ry="3.5"/><rect class="cls-11" x="195.5" y="209" width="7" height="7" rx="3.5" ry="3.5"/><path class="cls-14" d="M96.31,269.64s5,0,12.74,3.36a129,129,0,0,1,16.64,9.19l-8.38,16.06-8.58-7.69Z"/><path class="cls-15" d="M125.68,282.19s-7.28,7.11-8.38,16.06C117.3,298.25,124.43,290.93,125.68,282.19Z"/><path class="cls-14" d="M81.88,271.36s-4.62,1.81-10.65,7.75a129,129,0,0,0-12.17,14.6l13.63,11.92,5.21-10.28Z"/><path class="cls-15" d="M59.06,293.71s9.36,4,13.63,11.92C72.69,305.64,63.4,301.4,59.06,293.71Z"/><path class="cls-16" d="M71.35,303.55l-4.23-4.23c-2.08.89,1.52,41.53,1.52,41.53s-4.29,12-1.41,14c1.86,1.28,4.49,2.22,6.54-.34.79-1,0-3.81.29-5.52a11.31,11.31,0,0,1,1.54-4.37s2.38,6,3.66,4.33-.64-5.39-1.59-7-4.49-2.54-4.49-2.54L71.09,313.1"/><polygon class="cls-17" points="79.84 339.01 85.06 378.36 87.64 378.36 96.45 353.95 104.99 378.67 108.3 378.67 111.78 339.01 79.84 339.01"/><path class="cls-12" d="M93.53,268.53a11.82,11.82,0,0,1,1.88.06c3.47.39,15.15,2.44,19.19,12.4,4.77,11.75,2,57.38,2,57.38a38.75,38.75,0,0,1-19.27,5A82.33,82.33,0,0,1,77,340.85l-5-36.54S69.27,282.46,75,275.48C79.78,269.57,90.39,268.67,93.53,268.53Z"/><path class="cls-16" d="M97.29,264.42a4.13,4.13,0,0,0,1-.25c6.6-3.19,4.45-21,2.38-24.32-1.94-3.14-4.33-6.28-8.17-6.82a9.16,9.16,0,0,0-6.39,2c-4.46,3.22-5.59,8.88-5.52,14.34s.69,10.79,6,13.4A17.73,17.73,0,0,0,97.29,264.42Z"/><polygon class="cls-18" points="87.64 379.59 85.06 379.59 76.39 382.34 87.64 382.34 87.64 379.59"/><polygon class="cls-18" points="105.16 379.49 107.71 379.82 115.95 383.67 104.8 382.22 105.16 379.49"/><path class="cls-10" d="M88.64,285.45s1.3-9.14-5.82-14.26-14.33-3.08-15.08-.27,4,3,4,3-3,2-1.21,3.24,4.68-1.66,4.68-1.66-1.75,3.7,0,3.82,3.85-4.6,7.15-.56S85,284.88,85,284.88a1.79,1.79,0,0,0,1.62,1.62A2,2,0,0,0,88.64,285.45Z"/><path class="cls-16" d="M137.66,241.46c-.93.86-.89,5-1.4,6.66a11.31,11.31,0,0,1-2.17,4.1s-1.47-6.28-3-4.82-.17,5.43.55,7.13,4.06,3.17,4.06,3.17l-3.79,31.7-7.16-3.57s-1.29,1.54-2.09,2.6a29.05,29.05,0,0,0-1.76,2.79s12.18,5.73,14.36,5.16,5.13-39.4,5.13-39.4,3-3.63.41-6a4,4,0,0,0-2.11-1.06S140.07,241.28,137.66,241.46Z"/><path class="cls-8" d="M101.19,285.72c-1.2-.29-.12-6.42-2.49-8.42-2.61-2.21-6.28.26-7.33.32-2,.11-5.33,1.77-6.65-.5s3.39-4.23,4.55-3.07c0,0-3.31-.83-2.9-2.83s4.94-.92,5.83.32c0,0-1.33-1.65-.95-2.25,1.31-1.76,9.28,1.48,11.3,4.26C105.38,277.47,104.61,286.53,101.19,285.72Z"/></g></g></svg>